<svg ria-hiddaen="true" style="position: absolute; width: 0; height: 0; overflow: hidden;" 
version="1.1" xmlns="http://www.w3.org/2000/svg" xmlns:xlink="http://www.w3.org/1999/xlink">
<defs>
<symbol width="18" height="18" viewBox="0 0 18 18" fill="none" xmlns="http://www.w3.org/2000/svg" id="logo">
<mask id="mask0_3500_65" style="mask-type:alpha" maskUnits="userSpaceOnUse" x="0" y="0" width="18" height="18">
<path d="M0 14.412L4.0605 18H15.972L17.6775 15.6038L0.0015 14.412H0ZM10.4887 0V14.3048L15.9705 14.682L10.4887 0ZM9.74175 2.4105L1.82175 13.6807L9.74175 14.2155V2.4105Z" fill="black"/>
</mask>
<g mask="url(#mask0_3500_65)">
<path d="M0 0H18V18H0V0Z" fill="url(#paint0_linear_3500_65)"/>
</g>
<defs>
<linearGradient id="paint0_linear_3500_65" x1="7.66484" y1="2.72868e-06" x2="16.8581" y2="0.347733" gradientUnits="userSpaceOnUse">
<stop stop-color="#BEC7C2"/>
<stop offset="1" stop-color="#A1B5BA"/>
</linearGradient>
</defs>
</symbol>
<symbol width="146" height="10" viewBox="0 0 146 10" fill="none" xmlns="http://www.w3.org/2000/svg" id="text-logo">
<path d="M3.32271 9.83425V6.39503L0 0.165745H2.05018L4.24176 4.62707L6.41919 0.165745H8.44109L5.13252 6.39503V9.83425H3.32271Z" fill="#F6F5EF"/>
<path d="M8.24237 9.83425L11.862 0.165745H13.898L17.5177 9.83425H15.5947L14.803 7.59669H10.943L10.137 9.83425H8.24237ZM11.4378 6.21547H14.3081L12.8659 2.19613L11.4378 6.21547Z" fill="#F6F5EF"/>
<path d="M23.1328 10C22.1336 10 21.2759 9.79282 20.5595 9.37845C19.8431 8.95488 19.2917 8.37017 18.9052 7.62431C18.5187 6.86924 18.3255 5.99908 18.3255 5.01381C18.3255 4.02854 18.5187 3.15838 18.9052 2.40331C19.2917 1.64825 19.8431 1.05893 20.5595 0.635359C21.2759 0.211786 22.1336 0 23.1328 0C24.3205 0 25.2914 0.290055 26.0455 0.870165C26.809 1.44107 27.285 2.24678 27.4735 3.28729H25.4799C25.3574 2.76243 25.0934 2.35267 24.6881 2.05801C24.2922 1.75414 23.7644 1.60221 23.1045 1.60221C22.1902 1.60221 21.4738 1.90608 20.9554 2.51381C20.4369 3.12155 20.1777 3.95488 20.1777 5.01381C20.1777 6.07274 20.4369 6.90608 20.9554 7.51381C21.4738 8.11234 22.1902 8.4116 23.1045 8.4116C23.7644 8.4116 24.2922 8.27348 24.6881 7.99724C25.0934 7.71179 25.3574 7.32044 25.4799 6.8232H27.4735C27.285 7.81768 26.809 8.59576 26.0455 9.15746C25.2914 9.71915 24.3205 10 23.1328 10Z" fill="#F6F5EF"/>
<path d="M29.4998 9.83425V0.165745H31.3096V4.18508H35.7493V0.165745H37.5591V9.83425H35.7493V5.62155H31.3096V9.83425H29.4998Z" fill="#F6F5EF"/>
<path d="M42.2117 9.83425V1.5884H39.3273V0.165745H46.92V1.5884H44.0215V9.83425H42.2117Z" fill="#F6F5EF"/>
<path d="M51.8419 9.83425L55.4615 0.165745H57.4975L61.1172 9.83425H59.1942L58.4025 7.59669H54.5425L53.7365 9.83425H51.8419ZM55.0373 6.21547H57.9076L56.4654 2.19613L55.0373 6.21547Z" fill="#F6F5EF"/>
<path d="M62.8163 9.83425V0.165745H66.1956C67.355 0.165745 68.307 0.368323 69.0517 0.77348C69.8058 1.16943 70.3619 1.73112 70.7201 2.45856C71.0877 3.1768 71.2715 4.02394 71.2715 5C71.2715 5.97606 71.0877 6.82781 70.7201 7.55525C70.3619 8.27348 69.8058 8.83518 69.0517 9.24033C68.307 9.63628 67.355 9.83425 66.1956 9.83425H62.8163ZM64.6261 8.31492H66.1107C66.9402 8.31492 67.5953 8.186 68.0761 7.92818C68.5568 7.66114 68.9009 7.28361 69.1082 6.79558C69.3156 6.29834 69.4193 5.69982 69.4193 5C69.4193 4.30939 69.3156 3.71547 69.1082 3.21823C68.9009 2.72099 68.5568 2.33886 68.0761 2.07182C67.5953 1.80479 66.9402 1.67127 66.1107 1.67127H64.6261V8.31492Z" fill="#F6F5EF"/>
<path d="M75.8314 9.83425L72.2118 0.165745H74.1489L76.9484 8.02486L79.7621 0.165745H81.6709L78.0513 9.83425H75.8314Z" fill="#F6F5EF"/>
<path d="M83.2717 9.83425V0.165745H89.7333V1.5884H85.0816V4.24033H89.3092V5.62155H85.0816V8.4116H89.7333V9.83425H83.2717Z" fill="#F6F5EF"/>
<path d="M91.8701 9.83425V0.165745H93.6799L98.3317 6.97514V0.165745H100.142V9.83425H98.3317L93.6799 3.03867V9.83425H91.8701Z" fill="#F6F5EF"/>
<path d="M104.789 9.83425V1.5884H101.905V0.165745H109.497V1.5884H106.599V9.83425H104.789Z" fill="#F6F5EF"/>
<path d="M115.08 10C114.354 10 113.699 9.86188 113.115 9.58564C112.53 9.30018 112.064 8.87201 111.715 8.30111C111.375 7.7302 111.206 7.00737 111.206 6.1326V0.165745H113.016V6.14641C113.016 6.90147 113.199 7.46317 113.567 7.83149C113.944 8.19982 114.463 8.38398 115.122 8.38398C115.773 8.38398 116.286 8.19982 116.664 7.83149C117.041 7.46317 117.229 6.90147 117.229 6.14641V0.165745H119.039V6.1326C119.039 7.00737 118.86 7.7302 118.502 8.30111C118.143 8.87201 117.663 9.30018 117.059 9.58564C116.466 9.86188 115.806 10 115.08 10Z" fill="#F6F5EF"/>
<path d="M121.311 9.83425V0.165745H124.944C125.736 0.165745 126.387 0.299263 126.896 0.566298C127.414 0.824125 127.8 1.17864 128.055 1.62983C128.309 2.07182 128.437 2.56446 128.437 3.10773C128.437 3.69705 128.276 4.23573 127.956 4.72376C127.645 5.21179 127.155 5.5663 126.485 5.78729L128.536 9.83425H126.457L124.619 6.0221H123.12V9.83425H121.311ZM123.12 4.72376H124.831C125.434 4.72376 125.878 4.58103 126.16 4.29558C126.443 4.01013 126.584 3.6326 126.584 3.16298C126.584 2.70258 126.443 2.33425 126.16 2.05801C125.887 1.78177 125.439 1.64365 124.817 1.64365H123.12V4.72376Z" fill="#F6F5EF"/>
<path d="M130.544 9.83425V0.165745H137.006V1.5884H132.354V4.24033H136.582V5.62155H132.354V8.4116H137.006V9.83425H130.544Z" fill="#F6F5EF"/>
<path d="M142.522 10C141.796 10 141.155 9.88029 140.599 9.64088C140.043 9.39226 139.604 9.04236 139.284 8.59116C138.963 8.13076 138.798 7.57366 138.789 6.91989H140.698C140.717 7.37109 140.882 7.75322 141.193 8.0663C141.513 8.37017 141.951 8.5221 142.508 8.5221C142.988 8.5221 143.37 8.4116 143.653 8.19061C143.936 7.96041 144.077 7.65654 144.077 7.27901C144.077 6.88306 143.95 6.57459 143.695 6.35359C143.45 6.1326 143.12 5.95304 142.706 5.81492C142.291 5.6768 141.848 5.52947 141.376 5.37293C140.613 5.1151 140.029 4.78361 139.623 4.37845C139.227 3.9733 139.029 3.43462 139.029 2.76243C139.02 2.19153 139.157 1.7035 139.439 1.29834C139.732 0.883977 140.128 0.566298 140.627 0.345303C141.127 0.115101 141.702 0 142.352 0C143.012 0 143.592 0.115101 144.091 0.345303C144.6 0.575506 144.996 0.897789 145.279 1.31215C145.571 1.72652 145.727 2.21915 145.746 2.79005H143.808C143.799 2.44935 143.662 2.15009 143.398 1.89226C143.144 1.62523 142.786 1.49171 142.324 1.49171C141.928 1.4825 141.593 1.57919 141.32 1.78177C141.056 1.97514 140.924 2.26059 140.924 2.63812C140.924 2.96041 141.028 3.21823 141.235 3.4116C141.442 3.59576 141.725 3.7523 142.083 3.88122C142.442 4.01013 142.852 4.14825 143.314 4.29558C143.804 4.46133 144.251 4.6547 144.657 4.87569C145.062 5.09669 145.387 5.39134 145.632 5.75967C145.877 6.11878 146 6.58379 146 7.1547C146 7.66114 145.868 8.13076 145.604 8.56354C145.34 8.99632 144.949 9.34623 144.431 9.61326C143.912 9.87109 143.276 10 142.522 10Z" fill="#F6F5EF"/>
</symbol>
<symbol width="20" height="14" viewBox="0 0 20 14" fill="none" xmlns="http://www.w3.org/2000/svg" id="burger-btn">
<path d="M0 0.995C0 0.445 0.446 0 0.995 0H9.005C9.26889 7.86455e-09 9.52197 0.10483 9.70857 0.291429C9.89517 0.478027 10 0.731109 10 0.995C10 1.25889 9.89517 1.51197 9.70857 1.69857C9.52197 1.88517 9.26889 1.99 9.005 1.99H0.995C0.731109 1.99 0.478028 1.88517 0.291429 1.69857C0.10483 1.51197 0 1.25889 0 0.995ZM0 7C0 6.45 0.446 6.005 0.995 6.005H19.005C19.2689 6.005 19.522 6.10983 19.7086 6.29643C19.8952 6.48303 20 6.73611 20 7C20 7.26389 19.8952 7.51697 19.7086 7.70357C19.522 7.89017 19.2689 7.995 19.005 7.995H0.995C0.731109 7.995 0.478028 7.89017 0.291429 7.70357C0.10483 7.51697 0 7.26389 0 7ZM0.995 12.01C0.731109 12.01 0.478028 12.1148 0.291429 12.3014C0.10483 12.488 0 12.7411 0 13.005C0 13.2689 0.10483 13.522 0.291429 13.7086C0.478028 13.8952 0.731109 14 0.995 14H13.005C13.2689 14 13.522 13.8952 13.7086 13.7086C13.8952 13.522 14 13.2689 14 13.005C14 12.7411 13.8952 12.488 13.7086 12.3014C13.522 12.1148 13.2689 12.01 13.005 12.01H0.995Z" fill="#F6F5EF"/>
</symbol>

</defs>
</svg>