<svg ria-hiddaen="true" style="position: absolute; width: 0; height: 0; overflow: hidden;" 
version="1.1" xmlns="http://www.w3.org/2000/svg" xmlns:xlink="http://www.w3.org/1999/xlink">
<defs>
<symbol width="18" height="18" viewBox="0 0 18 18" fill="none" xmlns="http://www.w3.org/2000/svg" id="logo">
<mask id="mask0_3500_65" style="mask-type:alpha" maskUnits="userSpaceOnUse" x="0" y="0" width="18" height="18">
<path d="M0 14.412L4.0605 18H15.972L17.6775 15.6038L0.0015 14.412H0ZM10.4887 0V14.3048L15.9705 14.682L10.4887 0ZM9.74175 2.4105L1.82175 13.6807L9.74175 14.2155V2.4105Z" fill="black"/>
</mask>
<g mask="url(#mask0_3500_65)">
<path d="M0 0H18V18H0V0Z" fill="url(#paint0_linear_3500_65)"/>
</g>
<defs>
<linearGradient id="paint0_linear_3500_65" x1="7.66484" y1="2.72868e-06" x2="16.8581" y2="0.347733" gradientUnits="userSpaceOnUse">
<stop stop-color="#BEC7C2"/>
<stop offset="1" stop-color="#A1B5BA"/>
</linearGradient>
</defs>
</symbol>
<symbol width="146" height="10" viewBox="0 0 146 10" fill="none" xmlns="http://www.w3.org/2000/svg" id="text-logo">
<path d="M3.32271 9.83425V6.39503L0 0.165745H2.05018L4.24176 4.62707L6.41919 0.165745H8.44109L5.13252 6.39503V9.83425H3.32271Z" fill="#F6F5EF"/>
<path d="M8.24237 9.83425L11.862 0.165745H13.898L17.5177 9.83425H15.5947L14.803 7.59669H10.943L10.137 9.83425H8.24237ZM11.4378 6.21547H14.3081L12.8659 2.19613L11.4378 6.21547Z" fill="#F6F5EF"/>
<path d="M23.1328 10C22.1336 10 21.2759 9.79282 20.5595 9.37845C19.8431 8.95488 19.2917 8.37017 18.9052 7.62431C18.5187 6.86924 18.3255 5.99908 18.3255 5.01381C18.3255 4.02854 18.5187 3.15838 18.9052 2.40331C19.2917 1.64825 19.8431 1.05893 20.5595 0.635359C21.2759 0.211786 22.1336 0 23.1328 0C24.3205 0 25.2914 0.290055 26.0455 0.870165C26.809 1.44107 27.285 2.24678 27.4735 3.28729H25.4799C25.3574 2.76243 25.0934 2.35267 24.6881 2.05801C24.2922 1.75414 23.7644 1.60221 23.1045 1.60221C22.1902 1.60221 21.4738 1.90608 20.9554 2.51381C20.4369 3.12155 20.1777 3.95488 20.1777 5.01381C20.1777 6.07274 20.4369 6.90608 20.9554 7.51381C21.4738 8.11234 22.1902 8.4116 23.1045 8.4116C23.7644 8.4116 24.2922 8.27348 24.6881 7.99724C25.0934 7.71179 25.3574 7.32044 25.4799 6.8232H27.4735C27.285 7.81768 26.809 8.59576 26.0455 9.15746C25.2914 9.71915 24.3205 10 23.1328 10Z" fill="#F6F5EF"/>
<path d="M29.4998 9.83425V0.165745H31.3096V4.18508H35.7493V0.165745H37.5591V9.83425H35.7493V5.62155H31.3096V9.83425H29.4998Z" fill="#F6F5EF"/>
<path d="M42.2117 9.83425V1.5884H39.3273V0.165745H46.92V1.5884H44.0215V9.83425H42.2117Z" fill="#F6F5EF"/>
<path d="M51.8419 9.83425L55.4615 0.165745H57.4975L61.1172 9.83425H59.1942L58.4025 7.59669H54.5425L53.7365 9.83425H51.8419ZM55.0373 6.21547H57.9076L56.4654 2.19613L55.0373 6.21547Z" fill="#F6F5EF"/>
<path d="M62.8163 9.83425V0.165745H66.1956C67.355 0.165745 68.307 0.368323 69.0517 0.77348C69.8058 1.16943 70.3619 1.73112 70.7201 2.45856C71.0877 3.1768 71.2715 4.02394 71.2715 5C71.2715 5.97606 71.0877 6.82781 70.7201 7.55525C70.3619 8.27348 69.8058 8.83518 69.0517 9.24033C68.307 9.63628 67.355 9.83425 66.1956 9.83425H62.8163ZM64.6261 8.31492H66.1107C66.9402 8.31492 67.5953 8.186 68.0761 7.92818C68.5568 7.66114 68.9009 7.28361 69.1082 6.79558C69.3156 6.29834 69.4193 5.69982 69.4193 5C69.4193 4.30939 69.3156 3.71547 69.1082 3.21823C68.9009 2.72099 68.5568 2.33886 68.0761 2.07182C67.5953 1.80479 66.9402 1.67127 66.1107 1.67127H64.6261V8.31492Z" fill="#F6F5EF"/>
<path d="M75.8314 9.83425L72.2118 0.165745H74.1489L76.9484 8.02486L79.7621 0.165745H81.6709L78.0513 9.83425H75.8314Z" fill="#F6F5EF"/>
<path d="M83.2717 9.83425V0.165745H89.7333V1.5884H85.0816V4.24033H89.3092V5.62155H85.0816V8.4116H89.7333V9.83425H83.2717Z" fill="#F6F5EF"/>
<path d="M91.8701 9.83425V0.165745H93.6799L98.3317 6.97514V0.165745H100.142V9.83425H98.3317L93.6799 3.03867V9.83425H91.8701Z" fill="#F6F5EF"/>
<path d="M104.789 9.83425V1.5884H101.905V0.165745H109.497V1.5884H106.599V9.83425H104.789Z" fill="#F6F5EF"/>
<path d="M115.08 10C114.354 10 113.699 9.86188 113.115 9.58564C112.53 9.30018 112.064 8.87201 111.715 8.30111C111.375 7.7302 111.206 7.00737 111.206 6.1326V0.165745H113.016V6.14641C113.016 6.90147 113.199 7.46317 113.567 7.83149C113.944 8.19982 114.463 8.38398 115.122 8.38398C115.773 8.38398 116.286 8.19982 116.664 7.83149C117.041 7.46317 117.229 6.90147 117.229 6.14641V0.165745H119.039V6.1326C119.039 7.00737 118.86 7.7302 118.502 8.30111C118.143 8.87201 117.663 9.30018 117.059 9.58564C116.466 9.86188 115.806 10 115.08 10Z" fill="#F6F5EF"/>
<path d="M121.311 9.83425V0.165745H124.944C125.736 0.165745 126.387 0.299263 126.896 0.566298C127.414 0.824125 127.8 1.17864 128.055 1.62983C128.309 2.07182 128.437 2.56446 128.437 3.10773C128.437 3.69705 128.276 4.23573 127.956 4.72376C127.645 5.21179 127.155 5.5663 126.485 5.78729L128.536 9.83425H126.457L124.619 6.0221H123.12V9.83425H121.311ZM123.12 4.72376H124.831C125.434 4.72376 125.878 4.58103 126.16 4.29558C126.443 4.01013 126.584 3.6326 126.584 3.16298C126.584 2.70258 126.443 2.33425 126.16 2.05801C125.887 1.78177 125.439 1.64365 124.817 1.64365H123.12V4.72376Z" fill="#F6F5EF"/>
<path d="M130.544 9.83425V0.165745H137.006V1.5884H132.354V4.24033H136.582V5.62155H132.354V8.4116H137.006V9.83425H130.544Z" fill="#F6F5EF"/>
<path d="M142.522 10C141.796 10 141.155 9.88029 140.599 9.64088C140.043 9.39226 139.604 9.04236 139.284 8.59116C138.963 8.13076 138.798 7.57366 138.789 6.91989H140.698C140.717 7.37109 140.882 7.75322 141.193 8.0663C141.513 8.37017 141.951 8.5221 142.508 8.5221C142.988 8.5221 143.37 8.4116 143.653 8.19061C143.936 7.96041 144.077 7.65654 144.077 7.27901C144.077 6.88306 143.95 6.57459 143.695 6.35359C143.45 6.1326 143.12 5.95304 142.706 5.81492C142.291 5.6768 141.848 5.52947 141.376 5.37293C140.613 5.1151 140.029 4.78361 139.623 4.37845C139.227 3.9733 139.029 3.43462 139.029 2.76243C139.02 2.19153 139.157 1.7035 139.439 1.29834C139.732 0.883977 140.128 0.566298 140.627 0.345303C141.127 0.115101 141.702 0 142.352 0C143.012 0 143.592 0.115101 144.091 0.345303C144.6 0.575506 144.996 0.897789 145.279 1.31215C145.571 1.72652 145.727 2.21915 145.746 2.79005H143.808C143.799 2.44935 143.662 2.15009 143.398 1.89226C143.144 1.62523 142.786 1.49171 142.324 1.49171C141.928 1.4825 141.593 1.57919 141.32 1.78177C141.056 1.97514 140.924 2.26059 140.924 2.63812C140.924 2.96041 141.028 3.21823 141.235 3.4116C141.442 3.59576 141.725 3.7523 142.083 3.88122C142.442 4.01013 142.852 4.14825 143.314 4.29558C143.804 4.46133 144.251 4.6547 144.657 4.87569C145.062 5.09669 145.387 5.39134 145.632 5.75967C145.877 6.11878 146 6.58379 146 7.1547C146 7.66114 145.868 8.13076 145.604 8.56354C145.34 8.99632 144.949 9.34623 144.431 9.61326C143.912 9.87109 143.276 10 142.522 10Z" fill="#F6F5EF"/>
</symbol>
<symbol width="20" height="14" viewBox="0 0 20 14" fill="none" xmlns="http://www.w3.org/2000/svg" id="burger-btn">
<path d="M0 0.995C0 0.445 0.446 0 0.995 0H9.005C9.26889 7.86455e-09 9.52197 0.10483 9.70857 0.291429C9.89517 0.478027 10 0.731109 10 0.995C10 1.25889 9.89517 1.51197 9.70857 1.69857C9.52197 1.88517 9.26889 1.99 9.005 1.99H0.995C0.731109 1.99 0.478028 1.88517 0.291429 1.69857C0.10483 1.51197 0 1.25889 0 0.995ZM0 7C0 6.45 0.446 6.005 0.995 6.005H19.005C19.2689 6.005 19.522 6.10983 19.7086 6.29643C19.8952 6.48303 20 6.73611 20 7C20 7.26389 19.8952 7.51697 19.7086 7.70357C19.522 7.89017 19.2689 7.995 19.005 7.995H0.995C0.731109 7.995 0.478028 7.89017 0.291429 7.70357C0.10483 7.51697 0 7.26389 0 7ZM0.995 12.01C0.731109 12.01 0.478028 12.1148 0.291429 12.3014C0.10483 12.488 0 12.7411 0 13.005C0 13.2689 0.10483 13.522 0.291429 13.7086C0.478028 13.8952 0.731109 14 0.995 14H13.005C13.2689 14 13.522 13.8952 13.7086 13.7086C13.8952 13.522 14 13.2689 14 13.005C14 12.7411 13.8952 12.488 13.7086 12.3014C13.522 12.1148 13.2689 12.01 13.005 12.01H0.995Z" fill="#F6F5EF"/>
</symbol>
<symbol width="8" height="15" viewBox="0 0 8 15" fill="none" xmlns="http://www.w3.org/2000/svg" id="facebook">
<path d="M6.55245 2.49002H8V0.105022C7.29913 0.0340327 6.59492 -0.00101571 5.89028 2.2398e-05C3.79596 2.2398e-05 2.36381 1.24502 2.36381 3.52502V5.49001H0V8.16001H2.36381V15H5.19731V8.16001H7.55342L7.9076 5.49001H5.19731V3.78752C5.19731 3.00002 5.4129 2.49002 6.55245 2.49002Z" fill="#F6F5EF"/>
</symbol>
<symbol width="14" height="14" viewBox="0 0 14 14" fill="none" xmlns="http://www.w3.org/2000/svg" id="instagram">
<path d="M10.738 2.422C10.5719 2.422 10.4095 2.47127 10.2713 2.56357C10.1332 2.65587 10.0255 2.78706 9.96194 2.94055C9.89836 3.09404 9.88173 3.26293 9.91414 3.42588C9.94655 3.58882 10.0266 3.73849 10.144 3.85597C10.2615 3.97345 10.4112 4.05345 10.5741 4.08586C10.7371 4.11827 10.906 4.10164 11.0595 4.03806C11.2129 3.97448 11.3441 3.86682 11.4364 3.72868C11.5287 3.59054 11.578 3.42814 11.578 3.262C11.578 3.03922 11.4895 2.82556 11.332 2.66803C11.1744 2.5105 10.9608 2.422 10.738 2.422ZM13.958 4.116C13.9444 3.53521 13.8356 2.96058 13.636 2.415C13.458 1.94819 13.181 1.52549 12.824 1.176C12.4774 0.817198 12.0537 0.541924 11.585 0.371C11.0409 0.165313 10.4656 0.054047 9.884 0.042C9.142 -3.91155e-08 8.904 0 7 0C5.096 0 4.858 -3.91155e-08 4.116 0.042C3.53441 0.054047 2.95914 0.165313 2.415 0.371C1.94717 0.543654 1.52385 0.818692 1.176 1.176C0.817198 1.52262 0.541924 1.94631 0.371 2.415C0.165313 2.95914 0.054047 3.53441 0.042 4.116C-3.91155e-08 4.858 0 5.096 0 7C0 8.904 -3.91155e-08 9.142 0.042 9.884C0.054047 10.4656 0.165313 11.0409 0.371 11.585C0.541924 12.0537 0.817198 12.4774 1.176 12.824C1.52385 13.1813 1.94717 13.4563 2.415 13.629C2.95914 13.8347 3.53441 13.946 4.116 13.958C4.858 14 5.096 14 7 14C8.904 14 9.142 14 9.884 13.958C10.4656 13.946 11.0409 13.8347 11.585 13.629C12.0537 13.4581 12.4774 13.1828 12.824 12.824C13.1826 12.4758 13.4598 12.0527 13.636 11.585C13.8356 11.0394 13.9444 10.4648 13.958 9.884C13.958 9.142 14 8.904 14 7C14 5.096 14 4.858 13.958 4.116ZM12.698 9.8C12.6929 10.2443 12.6124 10.6846 12.46 11.102C12.3482 11.4066 12.1687 11.6819 11.935 11.907C11.708 12.1384 11.4333 12.3175 11.13 12.432C10.7126 12.5844 10.2723 12.6649 9.828 12.67C9.128 12.705 8.869 12.712 7.028 12.712C5.187 12.712 4.928 12.712 4.228 12.67C3.76662 12.6786 3.30722 12.6076 2.87 12.46C2.58005 12.3397 2.31795 12.161 2.1 11.935C1.86766 11.7101 1.69039 11.4346 1.582 11.13C1.4111 10.7066 1.31631 10.2564 1.302 9.8C1.302 9.1 1.26 8.841 1.26 7C1.26 5.159 1.26 4.9 1.302 4.2C1.30514 3.74574 1.38807 3.29556 1.547 2.87C1.67023 2.57454 1.85939 2.31116 2.1 2.1C2.31267 1.85932 2.5755 1.66817 2.87 1.54C3.29669 1.38603 3.7464 1.30556 4.2 1.302C4.9 1.302 5.159 1.26 7 1.26C8.841 1.26 9.1 1.26 9.8 1.302C10.2443 1.3071 10.6846 1.38757 11.102 1.54C11.4201 1.65806 11.7056 1.84999 11.935 2.1C12.1644 2.31502 12.3436 2.57791 12.46 2.87C12.6156 3.29625 12.6961 3.74625 12.698 4.2C12.733 4.9 12.74 5.159 12.74 7C12.74 8.841 12.733 9.1 12.698 9.8ZM7 3.409C6.29007 3.41038 5.59647 3.62217 5.00686 4.01759C4.41724 4.41302 3.95806 4.97434 3.68734 5.63063C3.41662 6.28692 3.34651 7.00873 3.48586 7.70485C3.6252 8.40097 3.96777 9.04017 4.47025 9.54169C4.97274 10.0432 5.61261 10.3845 6.309 10.5225C7.0054 10.6605 7.72707 10.589 8.38283 10.317C9.03859 10.045 9.59901 9.58471 9.99329 8.99432C10.3876 8.40394 10.598 7.70993 10.598 7C10.5989 6.52757 10.5064 6.05962 10.3259 5.62307C10.1453 5.18651 9.88019 4.78997 9.54581 4.45624C9.21143 4.1225 8.81436 3.85817 8.37746 3.67845C7.94055 3.49873 7.47242 3.40715 7 3.409ZM7 9.331C6.53897 9.331 6.0883 9.19429 5.70497 8.93816C5.32163 8.68202 5.02286 8.31797 4.84644 7.89204C4.67001 7.4661 4.62385 6.99741 4.71379 6.54524C4.80373 6.09307 5.02574 5.67773 5.35173 5.35173C5.67773 5.02574 6.09307 4.80373 6.54524 4.71379C6.99741 4.62385 7.4661 4.67001 7.89204 4.84644C8.31797 5.02286 8.68202 5.32163 8.93816 5.70497C9.19429 6.0883 9.331 6.53897 9.331 7C9.331 7.30611 9.27071 7.60922 9.15356 7.89204C9.03642 8.17484 8.86472 8.43181 8.64827 8.64827C8.43181 8.86472 8.17484 9.03642 7.89204 9.15356C7.60922 9.27071 7.30611 9.331 7 9.331Z" fill="#F6F5EF"/>
</symbol>
<symbol width="14" height="10" viewBox="0 0 14 10" fill="none" xmlns="http://www.w3.org/2000/svg" id="youtube">
<path fill-rule="evenodd" clip-rule="evenodd" d="M10.6047 0.624687C10.0097 0.589687 8.78469 0.554688 6.92969 0.554688H6.68468C4.89968 0.554688 3.7097 0.589687 3.1147 0.659687C2.3097 0.729687 1.74968 0.939687 1.43468 1.21969C1.15468 1.46469 0.944692 1.91969 0.874692 2.51469C0.839692 2.89969 0.804688 3.70469 0.804688 4.92969V5.10469C0.804688 6.25969 0.839683 7.06469 0.909683 7.44969C1.01468 8.00969 1.1897 8.42969 1.5397 8.67469C1.8897 8.95469 2.48469 9.12969 3.32469 9.19969C3.91969 9.23469 5.14469 9.26969 6.99969 9.26969H7.2447C9.0297 9.26969 10.2197 9.23469 10.8147 9.16469C11.6197 9.09469 12.1797 8.88469 12.4947 8.60469C12.7747 8.35969 12.9847 7.90469 13.0547 7.30969C13.0897 6.92469 13.1247 6.11969 13.1247 4.89469V4.71969C13.1247 3.56469 13.0897 2.75969 13.0197 2.37469C12.9147 1.81469 12.7397 1.39469 12.3897 1.14969C12.0397 0.869687 11.4447 0.694687 10.6047 0.624687ZM9.2397 4.92969L5.3897 7.23969V2.61969L9.2397 4.92969Z" fill="#F6F5EF"/>
</symbol>
<symbol id="right-->" viewBox="0 0 18 10">
<path fill-rule="evenodd" clip-rule="evenodd" d="M12.5 0.669922L18 5.00005L12.5 9.33018V5.75005L0 5.75005L0 4.25005L12.5 4.25005V0.669922Z" fill="#F6F5EF"/>
</symbol>
<symbol id="top-->" viewBox="0 0 16 30">
<path fill-rule="evenodd" clip-rule="evenodd" d="M0 9.16667L8 0L16 9.16667H9.38564V30H6.61436L6.61436 9.16667H0Z" fill="#F6F5EF"/>
</symbol>
<symbol id="krest" viewBox="0 0 24 24">
<path d="M18 6L6 18" stroke="#F6F5EF" stroke-width="1.3" stroke-linecap="round" stroke-linejoin="round"/>
<path d="M6 6L18 18" stroke="#F6F5EF" stroke-width="1.3" stroke-linecap="round" stroke-linejoin="round"/>
</svg>
</symbol>
</defs>
</svg>